<svg xmlns="http://www.w3.org/2000/svg" viewBox="0 0 520 340" fill="none">
  <defs>
    <linearGradient id="bg" x1="44" y1="28" x2="468" y2="316" gradientUnits="userSpaceOnUse"><stop stop-color="#B6F3E1"/><stop offset="1" stop-color="#74BFE7"/></linearGradient>
    <linearGradient id="card" x1="86" y1="56" x2="445" y2="288" gradientUnits="userSpaceOnUse"><stop stop-color="#fff" stop-opacity=".96"/><stop offset="1" stop-color="#E8FBF7" stop-opacity=".84"/></linearGradient>
    <linearGradient id="line" x1="148" y1="231" x2="362" y2="140" gradientUnits="userSpaceOnUse"><stop stop-color="#0A887A"/><stop offset="1" stop-color="#237EAA"/></linearGradient>
    <filter id="shadow" x="30" y="20" width="460" height="305" filterUnits="userSpaceOnUse"><feDropShadow dx="0" dy="14" stdDeviation="14" flood-color="#12546A" flood-opacity=".2"/></filter>
  </defs>
  <circle cx="258" cy="170" r="157" fill="#C5F5E7" fill-opacity=".28"/>
  <g opacity=".5" stroke="#fff" stroke-width="2"><path d="M25 73h38M44 54v38M457 35h28M471 21v28M454 292h40M474 272v40"/></g>
  <g filter="url(#shadow)"><rect x="54" y="34" width="410" height="268" rx="30" fill="url(#card)"/></g>
  <rect x="82" y="62" width="136" height="13" rx="6.5" fill="#0A6B50" fill-opacity=".9"/>
  <rect x="82" y="86" width="86" height="8" rx="4" fill="#8AA9B1" fill-opacity=".65"/>
  <g><rect x="336" y="57" width="97" height="43" rx="14" fill="#D5F5EA"/><path d="M357 79h11l6-10 8 19 7-12h20" stroke="#0A887A" stroke-width="3.5" stroke-linecap="round" stroke-linejoin="round"/><circle cx="407" cy="79" r="4" fill="#0A887A"/></g>
  <g><rect x="82" y="124" width="242" height="145" rx="18" fill="#F7FFFF"/><path d="M112 236c27-2 38-41 61-28 18 11 21-18 46-26 20-6 24 19 43 3 18-15 23-49 38-34" stroke="url(#line)" stroke-width="7" stroke-linecap="round"/><path d="M112 241h188" stroke="#D7E8EB" stroke-width="2"/><path d="M112 153v88" stroke="#D7E8EB" stroke-width="2"/><circle cx="173" cy="208" r="6" fill="#0A887A"/><circle cx="262" cy="185" r="6" fill="#237EAA"/></g>
  <g><rect x="345" y="124" width="88" height="65" rx="18" fill="#EEF8FF"/><circle cx="375" cy="156" r="17" fill="#87CDED"/><path d="M370 156h10m-5-5v10" stroke="#fff" stroke-width="3" stroke-linecap="round"/><rect x="400" y="142" width="15" height="7" rx="3.5" fill="#80A7B8"/><rect x="400" y="157" width="22" height="7" rx="3.5" fill="#C4D9E1"/></g>
  <g><rect x="345" y="203" width="88" height="66" rx="18" fill="#F1ECFF"/><path d="M368 234c0-10 14-14 21-4 7-10 21-6 21 4 0 12-21 20-21 20s-21-8-21-20Z" fill="#8B68D2"/><rect x="399" y="223" width="17" height="7" rx="3.5" fill="#B7A5E1"/><rect x="399" y="239" width="22" height="7" rx="3.5" fill="#D5CCEF"/></g>
  <g><rect x="82" y="282" width="178" height="6" rx="3" fill="#C0DADD"/><rect x="273" y="282" width="56" height="6" rx="3" fill="#0A887A" fill-opacity=".55"/></g>
</svg>
